# xmcd
#
# Track frame offsets: 
#        180
#        33336
#        56655
#        84258
#        104228
#        133466
#        160944
#        191297
#        225253
#        246743
#
# Disc length: 3769 seconds
#
# Revision: 0
# Processed by: cddbd v1.5.2PL0 Copyright (c) Steve Scherf et al.
# Submitted via: ExactAudioCopy v0.99pb5
#
DISCID=870eb70a
DTITLE=Christine Duncan and Bob Murphy - I Have A Dream
DYEAR=1994
DGENRE=Jazz
TTITLE0=I've Grown Accustomed to Your Face
TTITLE1=Gee Baby, Ain't I good to You
TTITLE2=A Cold Dawn
TTITLE3=Bye Bye Blackbird
TTITLE4=I Have a Dream
TTITLE5=Body and Soul
TTITLE6=The Man I Love
TTITLE7=Georgia On My Mind
TTITLE8=It Doesn't Matter to Me
TTITLE9=Another Time
EXTD=
EXTT0=
EXTT1=
EXTT2=
EXTT3=
EXTT4=
EXTT5=
EXTT6=
EXTT7=
EXTT8=
EXTT9=
PLAYORDER=
